<svg viewBox="0 0 512 512" xmlns="http://www.w3.org/2000/svg" role="img" aria-label="Danmark 100">
  <rect width="512" height="512" rx="104" fill="#c8102e"/>
  <text x="256" y="452" font-family="-apple-system, 'Helvetica Neue', Arial, sans-serif" font-weight="800" font-size="142" fill="#ffffff" text-anchor="middle" letter-spacing="2">100</text>
  <path d="M152.6,389.5 L151.8,389.5 L148.3,388.6 L145.8,386.6 L139.4,388.0 L130.8,391.4 L126.0,391.2 L122.3,387.6 L106.8,382.5 L104.3,382.1 L94.1,381.8 L94.0,381.8 L93.6,373.7 L92.3,367.9 L88.7,359.1 L94.0,357.0 L93.0,340.0 L91.1,331.2 L76.3,322.1 L64.6,313.3 L67.3,283.7 L68.4,275.7 L64.0,260.2 L64.5,242.4 L66.3,214.3 L70.0,213.2 L72.8,213.3 L83.2,218.4 L87.6,218.9 L90.6,223.4 L94.1,225.2 L96.7,220.5 L97.6,212.3 L106.0,201.7 L111.8,197.8 L115.8,195.9 L119.8,200.2 L122.8,205.0 L123.6,194.5 L126.0,174.5 L118.1,171.3 L111.7,174.1 L105.3,186.7 L99.6,202.7 L90.4,204.1 L83.0,208.6 L76.3,204.0 L72.0,199.8 L71.9,193.8 L72.9,190.2 L80.7,177.2 L91.2,164.7 L101.8,164.8 L109.5,160.8 L114.1,160.4 L128.4,161.2 L135.8,158.5 L142.4,152.8 L156.7,128.6 L164.8,118.5 L181.0,115.0 L196.0,103.3 L200.2,103.2 L193.1,111.8 L192.0,115.2 L191.2,120.3 L196.2,131.5 L195.2,138.3 L195.5,151.7 L190.7,158.7 L185.3,173.5 L183.0,175.7 L182.5,193.1 L183.1,197.2 L182.3,213.0 L187.8,219.4 L193.7,222.8 L213.1,222.7 L215.1,225.5 L217.5,230.4 L215.8,238.7 L213.7,244.9 L208.1,250.2 L200.8,254.1 L196.3,254.3 L190.2,246.8 L187.3,249.2 L184.3,253.0 L179.2,273.5 L176.8,287.2 L175.5,288.4 L172.7,286.3 L167.8,286.2 L161.6,289.4 L164.7,292.4 L168.1,297.4 L166.8,300.0 L161.3,302.7 L156.4,308.3 L154.4,312.5 L148.3,317.5 L144.4,323.8 L146.3,331.7 L147.1,338.5 L148.8,346.1 L147.3,352.2 L139.7,360.9 L136.9,368.4 L143.4,368.3 L147.4,370.1 L149.8,372.3 L152.2,375.5 L150.7,379.4 L152.6,389.5Z M307.4,295.1 L307.6,305.0 L306.1,307.8 L304.0,309.7 L298.6,311.7 L293.8,314.5 L289.6,319.4 L288.1,326.5 L291.4,331.6 L297.4,334.4 L298.9,344.2 L293.9,349.0 L281.2,353.8 L279.9,365.5 L280.3,374.6 L280.1,381.3 L279.0,390.5 L268.8,394.7 L262.1,380.7 L262.1,375.0 L260.1,368.5 L259.7,362.9 L257.3,354.0 L247.6,351.5 L243.8,351.2 L238.5,352.9 L237.2,352.2 L230.9,340.0 L231.9,326.5 L228.6,319.7 L228.1,316.7 L228.2,313.3 L225.4,310.4 L222.0,309.0 L220.4,301.4 L224.3,299.5 L233.8,300.4 L236.6,299.9 L239.2,298.3 L246.9,285.9 L246.7,283.1 L247.5,279.5 L255.9,278.2 L259.6,283.0 L258.9,290.8 L259.4,300.6 L264.4,303.3 L266.4,303.7 L268.5,296.4 L270.0,292.9 L272.0,290.9 L272.7,284.2 L271.5,280.2 L269.0,277.1 L278.5,268.9 L288.3,262.3 L294.0,262.0 L299.7,263.6 L305.1,265.8 L308.0,267.7 L309.6,270.7 L306.0,278.0 L305.0,282.0 L307.4,295.1Z M202.1,312.4 L204.4,317.5 L207.2,328.4 L211.7,340.7 L209.8,345.8 L211.1,352.4 L209.8,359.2 L201.0,367.2 L191.1,367.5 L180.8,363.7 L166.2,356.3 L165.0,352.1 L163.0,349.8 L159.1,337.2 L159.2,321.6 L166.5,319.7 L182.5,312.3 L186.2,313.4 L190.0,317.2 L194.5,317.5 L200.9,312.1 L202.1,312.4Z M306.4,375.7 L304.3,377.2 L295.9,376.1 L286.4,382.9 L282.8,380.8 L284.2,376.4 L285.1,374.8 L288.3,373.0 L290.5,370.3 L291.3,366.0 L293.3,368.3 L299.1,369.3 L302.0,370.6 L304.4,372.6 L306.4,375.7Z M241.3,383.0 L251.0,389.1 L257.6,388.7 L262.0,391.3 L263.1,395.2 L263.5,403.9 L258.8,406.4 L253.6,405.5 L246.6,408.8 L223.5,394.6 L223.8,382.8 L224.8,378.2 L235.7,377.1 L241.3,383.0Z M207.0,396.8 L204.6,397.4 L201.3,389.4 L200.8,386.9 L204.7,381.8 L207.2,376.1 L213.7,367.2 L217.5,356.8 L218.9,357.0 L217.2,366.2 L208.7,392.0 L207.0,396.8Z M445.3,370.2 L443.3,371.8 L434.2,369.1 L423.2,362.3 L424.8,348.9 L427.7,343.2 L447.8,358.1 L448.0,363.8 L445.3,370.2Z" fill="none" stroke="#ffffff" stroke-width="7" stroke-linejoin="round" stroke-linecap="round"/>
</svg>